<?xml version="1.0" encoding="utf-8"?>
<!-- Generator: Adobe Illustrator 22.1.0, SVG Export Plug-In . SVG Version: 6.00 Build 0)  -->
<svg version="1.1" id="Layer_1" xmlns="http://www.w3.org/2000/svg" xmlns:xlink="http://www.w3.org/1999/xlink" x="0px" y="0px"
	 viewBox="0 0 100 100" style="enable-background:new 0 0 100 100;" xml:space="preserve">
<style type="text/css">
	.light { fill: white; }
</style>
<g>
	<path class="light" d="M54.1,35h4.5v10.8h0.1c1.2-2.1,3.8-3.3,6.1-3.3c6.5,0,9.6,5.1,9.6,11.3c0,5.7-2.8,11.1-8.9,11.1
		c-2.8,0-5.8-0.7-7.1-3.5h-0.1v2.9h-4.3L54.1,35L54.1,35z M64.2,46.3c-3.8,0-5.8,3-5.8,7.5c0,4.3,2.1,7.5,5.8,7.5
		c4.1,0,5.7-3.8,5.7-7.5C69.9,49.9,68,46.3,64.2,46.3"/>
	<path class="light" d="M91.1,50.2c-0.4-2.6-2.2-4-4.7-4c-2.3,0-5.6,1.3-5.6,7.7c0,3.5,1.5,7.3,5.4,7.3c2.6,0,4.4-1.8,4.9-4.9h4.5
		c-0.8,5.5-4.1,8.5-9.4,8.5c-6.4,0-10-4.7-10-11c0-6.4,3.4-11.4,10.1-11.4c4.8,0,8.8,2.5,9.3,7.7H91.1L91.1,50.2z"/>
	<polygon class="light" points="38.3,64.3 4.3,64.3 20.2,35 54.1,35 	"/>
</g>
</svg>
