<?xml version="1.0" encoding="utf-8"?>
<!-- Generator: Adobe Illustrator 22.1.0, SVG Export Plug-In . SVG Version: 6.00 Build 0)  -->
<svg version="1.1" id="_1" xmlns="http://www.w3.org/2000/svg" xmlns:xlink="http://www.w3.org/1999/xlink" x="0px" y="0px"
	 viewBox="0 0 1417.3 1416.5" style="enable-background:new 0 0 1417.3 1416.5;" xml:space="preserve">
<style type="text/css">
	.st0{fill:#BF1313;}
	.st1{fill:#FFFFFF;}
</style>
<g>
	<g>
		<path class="st0" d="M1131.2,573.8c17.3-96.3-9.6-200.2-69.3-265.7c-52-57.8-127.1-82.8-215.7-73.2
			c-111.7,11.6-196.4,59.7-238.8,134.8C569,440.9,572.8,529.5,619,620c1.9,3.9,0,7.7-1.9,9.6s-5.8,3.9-9.6,1.9
			c-107.8-50.1-196.4-27-252.2,1.9c-20.9,10.9-40,24-57,38.5l286.5,286.5l68.1-46.6c14.9-10.2,32.1-15.3,49.3-15.3
			c17.2,0,34.5,5.1,49.3,15.3l68.1,46.6l295.2-295.2C1120,634.4,1125.5,604.6,1131.2,573.8z"/>
	</g>
	<polygon class="st1" points="99.3,568 534,1002.7 99.3,1300.4 	"/>
	<polygon class="st1" points="1239.6,1349 164.6,1349 164.6,1349 702.1,980.8 1239.6,1349 	"/>
	<polygon class="st1" points="1304.9,1300.4 870.2,1002.7 1304.9,568 	"/>
	<g>
		<path class="st1" d="M1201.8,464.5c4.7,37.8,4.1,76.2-1.8,113.4l62.5-62.5h0L1201.8,464.5z"/>
		<path class="st1" d="M253.8,619.7c21.7-18.4,45.1-34.2,69.8-47.1l0.1,0l0.1,0c50-25.8,103-39,157.6-38.9c12.2,0,24.4,0.7,36.6,2
			c-12.8-70.8-3.1-138.8,29.2-198.5l0.3-0.5l0.3-0.5c27.3-48.5,67.5-87.9,119.4-117.2c49.2-27.8,107-45.3,171.9-52.1
			c2.3-0.2,4.6-0.4,6.9-0.7L702.1,45.5L141.7,515.4l107.8,107.8L253.8,619.7z"/>
	</g>
</g>
</svg>
