<?xml version="1.0" encoding="utf-8"?>
<!-- Generator: Adobe Illustrator 22.1.0, SVG Export Plug-In . SVG Version: 6.00 Build 0)  -->
<svg version="1.1" id="Layer_1" xmlns="http://www.w3.org/2000/svg" xmlns:xlink="http://www.w3.org/1999/xlink" x="0px" y="0px"
	 viewBox="0 0 100 100" style="enable-background:new 0 0 100 100;" xml:space="preserve">
<style type="text/css">
	.Arched_x0020_Green{fill:url(#SVGID_1_);stroke:#FFFFFF;stroke-width:0.25;stroke-miterlimit:1;}
	.st0{fill:#FFFFFF;}
</style>
<linearGradient id="SVGID_1_" gradientUnits="userSpaceOnUse" x1="-1095" y1="306" x2="-1094.2928" y2="305.2929">
	<stop  offset="0" style="stop-color:#1EAB4B"/>
	<stop  offset="0.9831" style="stop-color:#19361A"/>
</linearGradient>
<path class="st0" d="M81.4,14.7H18.6c-2.2,0-3.9,1.7-3.9,3.9v62.8c0,2.2,1.7,3.9,3.9,3.9h33.8V58.1h-9.2V47.3h9.2v-7.8
	c0-9.1,5.6-14.1,13.7-14.1c2.8,0,5.5,0.2,8.3,0.5v9.5h-5.6c-4.4,0-5.3,2.1-5.3,5.2v6.8H74l-1.4,10.7h-9.2v27.2h18
	c2.2,0,3.9-1.7,3.9-3.9c0,0,0,0,0,0V18.6C85.3,16.4,83.6,14.7,81.4,14.7C81.4,14.7,81.4,14.7,81.4,14.7z"/>
</svg>
