<?xml version="1.0" encoding="utf-8"?>
<!-- Generator: Adobe Illustrator 22.1.0, SVG Export Plug-In . SVG Version: 6.00 Build 0)  -->
<svg version="1.1" id="Layer_1" xmlns="http://www.w3.org/2000/svg" xmlns:xlink="http://www.w3.org/1999/xlink" x="0px" y="0px"
	 viewBox="0 0 100 100" style="enable-background:new 0 0 100 100;" xml:space="preserve">
<style type="text/css">
	.Arched_x0020_Green{fill:url(#SVGID_1_);stroke:#FFFFFF;stroke-width:0.25;stroke-miterlimit:1;}
	.st0{fill:#FFFFFF;}
</style>
<linearGradient id="SVGID_1_" gradientUnits="userSpaceOnUse" x1="-967.3077" y1="306" x2="-966.6006" y2="305.2929">
	<stop  offset="0" style="stop-color:#1EAB4B"/>
	<stop  offset="0.9831" style="stop-color:#19361A"/>
</linearGradient>
<g>
	<path class="st0" d="M50,19.4c10,0,11.1,0,15.1,0.2c3.6,0.2,5.6,0.8,6.9,1.3c1.7,0.7,3,1.5,4.3,2.8c1.3,1.3,2.1,2.5,2.8,4.3
		c0.5,1.3,1.1,3.3,1.3,6.9c0.2,3.9,0.2,5.1,0.2,15.1s0,11.1-0.2,15.1c-0.2,3.6-0.8,5.6-1.3,6.9c-0.7,1.7-1.5,3-2.8,4.3
		c-1.3,1.3-2.5,2.1-4.3,2.8c-1.3,0.5-3.3,1.1-6.9,1.3c-3.9,0.2-5.1,0.2-15.1,0.2s-11.1,0-15.1-0.2c-3.6-0.2-5.6-0.8-6.9-1.3
		c-1.7-0.7-3-1.5-4.3-2.8c-1.3-1.3-2.1-2.5-2.8-4.3c-0.5-1.3-1.1-3.3-1.3-6.9c-0.2-3.9-0.2-5.1-0.2-15.1s0-11.1,0.2-15.1
		c0.2-3.6,0.8-5.6,1.3-6.9c0.7-1.7,1.5-3,2.8-4.3c1.3-1.3,2.5-2.1,4.3-2.8c1.3-0.5,3.3-1.1,6.9-1.3C38.9,19.4,40,19.4,50,19.4
		 M50,12.7c-10.1,0-11.4,0-15.4,0.2c-4,0.2-6.7,0.8-9.1,1.7c-2.5,1-4.5,2.2-6.6,4.3c-2.1,2.1-3.4,4.2-4.3,6.6
		c-0.9,2.4-1.6,5.1-1.7,9.1c-0.2,4-0.2,5.3-0.2,15.4c0,10.1,0,11.4,0.2,15.4c0.2,4,0.8,6.7,1.7,9.1c1,2.5,2.2,4.5,4.3,6.6
		c2.1,2.1,4.2,3.4,6.6,4.3c2.4,0.9,5.1,1.6,9.1,1.7c4,0.2,5.3,0.2,15.4,0.2s11.4,0,15.4-0.2c4-0.2,6.7-0.8,9.1-1.7
		c2.5-1,4.5-2.2,6.6-4.3c2.1-2.1,3.4-4.2,4.3-6.6c0.9-2.4,1.6-5.1,1.7-9.1c0.2-4,0.2-5.3,0.2-15.4s0-11.4-0.2-15.4
		c-0.2-4-0.8-6.7-1.7-9.1c-1-2.5-2.2-4.5-4.3-6.6c-2.1-2.1-4.2-3.4-6.6-4.3c-2.4-0.9-5.1-1.6-9.1-1.7C61.4,12.7,60.1,12.7,50,12.7
		L50,12.7z"/>
	<path class="st0" d="M50,30.8c-10.6,0-19.2,8.6-19.2,19.2S39.4,69.2,50,69.2S69.2,60.6,69.2,50S60.6,30.8,50,30.8z M50,62.4
		c-6.9,0-12.4-5.6-12.4-12.4c0-6.9,5.6-12.4,12.4-12.4c6.9,0,12.4,5.6,12.4,12.4C62.4,56.9,56.9,62.4,50,62.4z"/>
	<circle class="st0" cx="69.9" cy="30.1" r="4.5"/>
</g>
</svg>
