<?xml version="1.0" encoding="utf-8"?>
<!-- Generator: Adobe Illustrator 22.1.0, SVG Export Plug-In . SVG Version: 6.00 Build 0)  -->
<svg version="1.1" id="Layer_1" xmlns="http://www.w3.org/2000/svg" xmlns:xlink="http://www.w3.org/1999/xlink" x="0px" y="0px"
	 viewBox="0 0 100 100" style="enable-background:new 0 0 100 100;" xml:space="preserve">
<style type="text/css">
	.Arched_x0020_Green{fill:url(#SVGID_1_);stroke:#FFFFFF;stroke-width:0.25;stroke-miterlimit:1;}
	.st0{fill:#FFFFFF;}
</style>
<linearGradient id="SVGID_1_" gradientUnits="userSpaceOnUse" x1="-1368.8462" y1="306" x2="-1368.139" y2="305.2929">
	<stop  offset="0" style="stop-color:#1EAB4B"/>
	<stop  offset="0.9831" style="stop-color:#19361A"/>
</linearGradient>
<g>
	<path class="st0" d="M76.8,51C84.1,51,90,45.1,90,37.9c0-7.2-5.9-13.1-13.1-13.1c-7.3,0-13.1,5.9-13.1,13.1
		C63.7,45.1,69.6,51,76.8,51z"/>
	<path class="st0" d="M47.3,53.4c6.5,0,11.8-5.3,11.8-11.8c0-6.5-5.3-11.8-11.8-11.8c-6.5,0-11.8,5.3-11.8,11.8
		C35.4,48.1,40.7,53.4,47.3,53.4z"/>
	<path class="st0" d="M20.4,55.6c5.9,0,10.6-4.7,10.6-10.6c0-5.9-4.8-10.6-10.6-10.6c-5.9,0-10.6,4.7-10.6,10.6
		C9.8,50.8,14.6,55.6,20.4,55.6z"/>
	<path class="st0" d="M20.4,58c-6.7,0-11.7,5.9-11.7,12v4.1l0,0c0,0.6,0.5,1.1,1.1,1.1h0.4h20.5h0.4c0.6,0,1.1-0.5,1.1-1.1l0,0V70
		C32.1,63.9,27.2,58,20.4,58z"/>
	<path class="st0" d="M47.3,56.1c-7.5,0-13,6.6-13,13.4V74l0,0c0,0.6,0.5,1.2,1.2,1.2h0.4h22.8h0.4c0.7,0,1.2-0.5,1.2-1.2l0,0v-4.6
		C60.2,62.6,54.7,56.1,47.3,56.1z"/>
	<path class="st0" d="M76.8,53.9c-8.3,0-14.4,7.3-14.4,14.9v5.1l0,0c0,0.7,0.6,1.3,1.3,1.3h0.5h25.3h0.5c0.7,0,1.3-0.6,1.3-1.3l0,0
		v-5.1C91.3,61.3,85.2,53.9,76.8,53.9z"/>
</g>
</svg>
