<?xml version="1.0" encoding="utf-8"?>
<!-- Generator: Adobe Illustrator 22.1.0, SVG Export Plug-In . SVG Version: 6.00 Build 0)  -->
<svg version="1.1" id="Layer_1" xmlns="http://www.w3.org/2000/svg" xmlns:xlink="http://www.w3.org/1999/xlink" x="0px" y="0px"
	 viewBox="0 0 100 100" style="enable-background:new 0 0 100 100;" xml:space="preserve">
<style type="text/css">
	.Arched_x0020_Green{fill:url(#SVGID_1_);stroke:#FFFFFF;stroke-width:0.25;stroke-miterlimit:1;}
	.st0{fill:#FFFFFF;}
</style>
<linearGradient id="SVGID_1_" gradientUnits="userSpaceOnUse" x1="-1230.3846" y1="306" x2="-1229.6775" y2="305.2929">
	<stop  offset="0" style="stop-color:#1EAB4B"/>
	<stop  offset="0.9831" style="stop-color:#19361A"/>
</linearGradient>
<path class="st0" d="M86.8,31.5c-0.9-3.3-3.5-5.9-6.8-6.8c-6-1.6-30-1.6-30-1.6s-24,0-30,1.6c-3.3,0.9-5.9,3.5-6.8,6.8
	c-1.6,6-1.6,18.5-1.6,18.5s0,12.5,1.6,18.5c0.9,3.3,3.5,5.9,6.8,6.8c6,1.6,30,1.6,30,1.6s24,0,30-1.6c3.3-0.9,5.9-3.5,6.8-6.8
	c1.6-6,1.6-18.5,1.6-18.5S88.4,37.5,86.8,31.5z M42.3,61.5v-23L62.3,50L42.3,61.5z"/>
</svg>
