<?xml version="1.0" encoding="utf-8"?>
<!-- Generator: Adobe Illustrator 22.1.0, SVG Export Plug-In . SVG Version: 6.00 Build 0)  -->
<svg version="1.1" id="Layer_1" xmlns="http://www.w3.org/2000/svg" xmlns:xlink="http://www.w3.org/1999/xlink" x="0px" y="0px"
	 viewBox="0 0 800 800" style="enable-background:new 0 0 800 800;" xml:space="preserve">
<style type="text/css">
	.accent { fill: #a81e2d; }
</style>
<path class="accent" d="M357.1,349.1c-82-38.1-149.4-20.5-191.9,1.5C91.9,388.7,49.5,462,42.1,513.2c-10.3,63,17.6,139.2,67.4,187.5
	c36.6,35.2,82,54.2,130.4,54.2c11.7,0,23.4-1.5,33.7-2.9c230-41,345.8-32.2,385.3-26.4c10.3,1.5,20.5-5.9,23.4-17.6
	c7.3-44,35.2-196.3,73.3-402.9c13.2-73.3-7.3-152.4-52.7-202.2c-39.6-44-96.7-63-164.1-55.7c-85,8.8-149.4,45.4-181.7,102.6
	c-29.3,54.2-26.4,121.6,8.8,190.5c1.5,2.9,0,5.9-1.5,7.3C363,349.1,360.1,350.6,357.1,349.1z"/>
</svg>
