<?xml version="1.0" encoding="utf-8"?>
<?xml-stylesheet href="dev2.abercorn.band/styles/variables.css" type="text/css"?>
<!-- Generator: Adobe Illustrator 22.1.0, SVG Export Plug-In . SVG Version: 6.00 Build 0)  -->
<svg version="1.1" id="Layer_1" xmlns="http://www.w3.org/2000/svg" xmlns:xlink="http://www.w3.org/1999/xlink" x="0px" y="0px"
	 viewBox="0 0 680 200" style="enable-background:new 0 0 680 200;" xml:space="preserve">
<style type="text/css">
	.light { fill: white; }
	.accent { fill: #a81e2d; }
</style>
<g>
	<path class="light" d="M72.4,70.7c0.1,0,0.3,0,0.4-0.1c0.6-0.2,1-0.7,1-1.4c0-0.6,0-1.1,0-1.7c0-20.9,18.9-30.7,59.4-30.7
		c27.2,0,58,0,85.8-1.5c0.9,0,1.3-0.7,1.3-1.4c0-0.7-0.4-1.4-1.3-1.4c-16.4-1.3-34.8-3.8-52.6-6.2c-25.2-3.4-48.9-6.6-66.4-6.6
		C77,19.7,64.7,30,64.7,49.4c0,6.4,2.3,13.7,6.5,20.6C71.5,70.5,71.9,70.7,72.4,70.7z"/>
	<path class="light" d="M123.3,76.3c-4.4,3.1-14.2,8.3-29.3,8.3c-4.4,0-8.2-0.7-11.3-2c-0.6-0.3-1.3-0.1-1.7,0.5
		c-0.4,0.5-0.4,1.2,0.1,1.8c7.7,8.8,19.4,19.2,31.8,19.2c6.8,0,12.8-3.8,15.4-10c2.6-6,1.4-12.6-3.2-17.6
		C124.6,75.9,123.8,75.9,123.3,76.3z"/>
	<path class="accent" d="M55.9,133.9c-5.6-2.6-10.2-1.4-13.1,0.1c-5,2.6-7.9,7.6-8.4,11.1c-0.7,4.3,1.2,9.5,4.6,12.8
		c2.5,2.4,5.6,3.7,8.9,3.7c0.8,0,1.6-0.1,2.3-0.2c15.7-2.8,23.6-2.2,26.3-1.8c0.7,0.1,1.4-0.4,1.6-1.2c0.5-3,2.4-13.4,5-27.5
		c0.9-5-0.5-10.4-3.6-13.8c-2.7-3-6.6-4.3-11.2-3.8c-5.8,0.6-10.2,3.1-12.4,7c-2,3.7-1.8,8.3,0.6,13c0.1,0.2,0,0.4-0.1,0.5
		C56.3,133.9,56.1,134,55.9,133.9z"/>
	<path class="light" d="M262.1,103.8c-8.5,0-15.7,6.3-19.8,12.5l4.4-16.8c0.5-2.1,1-4,1.5-5.7c2.9-11.5,4.2-16.2,5.9-16.2
		c1.5,0,3.6,1.5,5.9,3c2.8,1.9,5.6,3.8,8.1,3.8c3.8,0,6.7-3.1,7.1-6.1c0.2-1.4-0.2-2.7-1.2-3.8c-1.1-1.2-3.4-2.6-8.3-2.6
		c-11.1,0-34.4,9.4-40.5,32.2c-0.4,1.3-0.9,3.3-1.6,5.7c-2.8,10.2-7.5,27.3-8.2,33.2c-0.2,1.8-0.3,3.5-0.3,5.1
		c-8.8,12.9-16.6,20.8-20.6,20.8c-0.5,0-0.9-0.2-1.2-0.5c-0.6-0.8-1-2.9,0.5-8.7l29.2-102.9c1.9-6.9,4-13.7,6.8-16.9
		c0.4-0.5,0.5-1.1,0.1-1.7c-0.3-0.5-1-0.8-1.6-0.6c-15.2,4.1-29.5,30.1-43.6,79.3l-5.2,18.3c-0.1,0.2-0.2,0.3-0.4,0.3h-37.9
		c-0.2,0-0.3-0.2-0.4-0.2c0-0.1-0.1-0.3,0.1-0.4c10.1-12.6,19.1-26.4,27.7-39.7c14.9-23,28.9-44.7,45.7-53.8
		c0.6-0.3,0.9-1.1,0.7-1.8c-0.2-0.7-0.9-1-1.6-0.9c-29.2,6.2-54.1,38.2-78.1,69.1c-25.7,33.1-50,64.3-78.2,64.3
		c-17.1,0-29.5-11.5-29.5-27.3c0-13.6,10-22.7,19.7-23.6c0.3,0,0.5-0.3,0.5-0.5c0-0.3-0.3-0.5-0.5-0.5c-11.3,0.5-23.3,9.9-23.3,26.5
		c0,19.1,15.6,32.4,37.8,32.4c28.5,0,52.5-12.8,75.5-40.1c0.1-0.1,0.2-0.1,0.3-0.1h40.4c0.1,0,0.3,0.1,0.3,0.2s0.1,0.2,0.1,0.4
		l-3.8,13.1c-2.9,9.8-2.5,17.5,0.9,22.1c2.3,3,5.8,4.6,10.4,4.6c8.9,0,19.4-9,30.1-25.7c0.7,3.1,2,5.7,3.9,7.9
		c5,5.7,13,6.9,18.8,6.9c24.7,0,40.5-20.3,42.9-39.5c1-8.1-0.6-14.8-4.6-19.3C273.2,105.8,268.2,103.8,262.1,103.8z M237.9,132.5
		c3.2-12.8,9.6-20.4,17.1-20.4c1.5,0,2.6,0.5,3.5,1.5c1.8,2,2.4,6.2,1.6,12.3c-1.5,12.2-9,39.1-21.6,39.1c-2.2,0-3.7-0.5-4.7-1.6
		c-1.3-1.5-1.7-4.1-1.2-8.1c0.3-2.1,0.9-4.7,2.9-12.6C236.1,139.9,236.9,136.6,237.9,132.5L237.9,132.5z"/>
	<path class="light" d="M305.3,132.2c0.1-0.2,0.3-0.4,0.5-0.3c4.7,1,9.3,1.5,13.8,1.5c16.3,0,24.6-7.6,25.5-14.8
		c0.4-3.2-0.6-6.3-2.8-8.8c-3.4-3.9-9.5-6-17.1-6c-24.6,0-40.5,22-42.4,37.9c-1,7.7,0.8,14.6,5,19.3c4.3,4.9,11,7.4,19.4,7.4
		c16,0,27.9-13.3,33.2-24.8c0.1-0.2,0.1-0.3,0-0.5s-0.3-0.2-0.4-0.2h-0.8c-0.4,0-0.8,0.2-1.1,0.5c-5.7,6.7-12.4,9.9-20.5,9.9
		c-3.1,0-7.4-0.7-10.3-4c-2.6-2.9-3.6-7.3-2.9-12.9C304.7,135.1,304.9,133.7,305.3,132.2z M323.9,107.2c1.1,0,1.9,0.3,2.5,0.9
		c0.6,0.7,0.8,1.7,0.7,3.1c-0.7,6-8.7,15.3-20,16.9c-0.2,0-0.3-0.1-0.4-0.1c0-0.1-0.1-0.2-0.1-0.4
		C310.8,114.2,316.8,107.2,323.9,107.2z"/>
	<path class="light" d="M403.1,112.9c0.4-2.9-0.3-5.6-1.8-7.2c-1.1-1.3-2.6-1.9-4.5-1.9c-7.6,0-13.9,5.7-20,18.5
		c1.6-5.6,2.2-8.1,2.4-9.9c0.3-2.5-0.2-4.5-1.5-5.9c-1.5-1.7-4.2-2.6-7.8-2.6c-6.7,0-16.7,5.3-23.7,17c-0.2,0.4-0.3,0.8-0.1,1.2
		c0.1,0.4,0.5,0.7,0.9,0.9c0.6,0.2,1.3,0,1.7-0.6c2.8-4.6,5.9-7.1,7.4-7.1c0.5,0,0.8,0.1,0.9,0.2c0.2,0.2,0.3,0.7,0.2,2
		c-0.2,1.6-0.7,3.6-7,27.3l-5.5,20.6c-0.1,0.4,0,0.9,0.2,1.2c0.3,0.4,0.7,0.6,1.1,0.6h17.8c0.6,0,1.2-0.4,1.4-1.1l6.1-23.8
		c3.7-14.2,9-21.2,16.1-21.2c1.1,0,2.3,0.3,3.4,0.6c1,0.3,2,0.5,2.9,0.5C398.3,122.3,402.4,118.1,403.1,112.9z"/>
	<path class="light" d="M442.1,120c-0.5,1.3-0.9,2.3-0.9,2.8c-0.2,1.6,0.2,3,1,4c1.1,1.2,2.8,1.8,5.3,1.8c10.3,0,12.1-8.1,12.4-10.6
		c0.4-3.1-0.5-6-2.6-8.4c-2.4-2.7-7.3-5.9-17.5-5.9c-24.7,0-40.6,22-42.5,37.9c-0.9,7.7,0.9,14.5,5.1,19.3
		c4.3,4.9,11.1,7.5,19.5,7.5c16,0,27.9-13.3,33.2-24.8c0.1-0.2,0.1-0.3,0-0.5s-0.3-0.2-0.4-0.2h-0.8c-0.4,0-0.8,0.2-1.1,0.5
		c-5.7,6.7-12.4,9.9-20.5,9.9c-3.2,0-7.7-0.7-10.7-4.1c-2.5-2.8-3.4-6.9-2.8-12.1c1-8.5,8.5-29.9,19.8-29.9c2.3,0,3.8,0.5,4.6,1.5
		c0.9,1,1.2,2.6,0.9,4.8C443.8,115.4,442.8,118,442.1,120z"/>
	<path class="light" d="M500.9,103.8c-25.7,0-40.4,22.2-42.2,37.2c-1,7.9,0.9,14.9,5.3,19.9c4.4,5,11,7.6,19.1,7.6
		c25.7,0,40.4-22.2,42.2-37.2c1-7.8-0.9-14.9-5.3-19.8C515.5,106.4,509,103.8,500.9,103.8z M484.2,164.9c-1.6,0-2.9-0.5-3.9-1.6
		c-1.9-2.2-2.5-6.7-1.7-13.4c1.6-13.4,9.2-42.8,21.1-42.8c1.6,0,2.9,0.5,3.9,1.6c1.9,2.2,2.5,6.7,1.7,13.4
		C503.7,135.6,496.1,164.9,484.2,164.9z"/>
	<path class="light" d="M586.3,112.9c0.4-2.9-0.3-5.6-1.8-7.2c-1.1-1.3-2.6-1.9-4.5-1.9c-7.6,0-13.9,5.7-20,18.4
		c1.5-5.5,2.2-8.1,2.4-9.9c0.3-2.5-0.2-4.5-1.5-5.9c-1.5-1.7-4.2-2.6-7.8-2.6c-6.7,0-16.7,5.3-23.7,17c-0.2,0.4-0.3,0.8-0.1,1.2
		c0.1,0.4,0.5,0.7,0.9,0.9c0.6,0.2,1.3,0,1.7-0.6c2.8-4.6,5.9-7.1,7.4-7.1c0.5,0,0.8,0.1,0.9,0.2c0.2,0.2,0.3,0.7,0.2,2
		c-0.2,1.6-0.7,3.6-7,27.2l-5.5,20.7c-0.1,0.4,0,0.9,0.2,1.2c0.3,0.4,0.7,0.6,1.1,0.6H547c0.6,0,1.2-0.4,1.4-1.1l6.1-23.8
		c3.7-14.2,9-21.2,16.1-21.2c1.1,0,2.3,0.3,3.4,0.6c1,0.3,2,0.5,2.9,0.5C581.5,122.3,585.6,118.1,586.3,112.9z"/>
	<path class="light" d="M656,150.2c-0.1-0.4-0.5-0.7-0.9-0.9c-0.6-0.2-1.3,0-1.7,0.6c-2.8,4.6-5.9,7.1-7.4,7.1c-0.5,0-0.8-0.1-1-0.3
		c-0.3-0.3-0.4-0.9-0.3-1.8c0.4-2.9,2.2-9.4,4.2-16.4c2.2-7.8,4.4-15.8,4.9-19.7c0.6-4.7-0.3-8.4-2.6-11.1
		c-2.3-2.6-5.8-3.9-10.3-3.9c-9.2,0-20.4,10.1-27.4,20.7l0.2-0.8c1.9-7,2.6-9.3,2.8-11.4c0.3-2.5-0.2-4.5-1.5-5.9
		c-1.5-1.7-4.2-2.6-7.8-2.6c-6.7,0-16.7,5.3-23.7,17c-0.2,0.4-0.3,0.8-0.1,1.2c0.1,0.4,0.5,0.7,0.9,0.9c0.6,0.2,1.3,0,1.7-0.6
		c2.8-4.6,5.9-7.1,7.4-7.1c0.4,0,0.7,0.1,0.9,0.3c0.3,0.4,0.5,1.1,0.3,2.2c-0.2,1.2-0.3,1.8-8.2,31.4l-4.3,16.3
		c-0.1,0.4,0,0.9,0.2,1.2c0.3,0.4,0.7,0.6,1.1,0.6h17.8c0.6,0,1.2-0.4,1.4-1.1l6.1-23.8c3.9-15.4,15.1-27.8,21.7-27.8
		c0.9,0,1.6,0.3,2.1,0.9c0.7,0.8,1,2.1,0.7,4c-0.2,2-2.8,11.5-5.4,20.7c-2.5,9.2-4.9,17.9-5.1,19.8c-0.3,2.5,0.2,4.5,1.5,5.9
		c1.5,1.7,4.2,2.6,7.8,2.6c6.7,0,16.7-5.3,23.7-17C656.1,151,656.1,150.6,656,150.2z"/>
</g>
<g>
	<path class="light" d="M72.4,70.7c0.1,0,0.3,0,0.4-0.1c0.6-0.2,1-0.7,1-1.4c0-0.6,0-1.1,0-1.7c0-20.9,18.9-30.7,59.4-30.7
		c27.2,0,58,0,85.8-1.5c0.9,0,1.3-0.7,1.3-1.4c0-0.7-0.4-1.4-1.3-1.4c-16.4-1.3-34.8-3.8-52.6-6.2c-25.2-3.4-48.9-6.6-66.4-6.6
		C77,19.7,64.7,30,64.7,49.4c0,6.4,2.3,13.7,6.5,20.6C71.5,70.5,71.9,70.7,72.4,70.7z"/>
	<path class="light" d="M123.3,76.3c-4.4,3.1-14.2,8.3-29.3,8.3c-4.4,0-8.2-0.7-11.3-2c-0.6-0.3-1.3-0.1-1.7,0.5
		c-0.4,0.5-0.4,1.2,0.1,1.8c7.7,8.8,19.4,19.2,31.8,19.2c6.8,0,12.8-3.8,15.4-10c2.6-6,1.4-12.6-3.2-17.6
		C124.6,75.9,123.8,75.9,123.3,76.3z"/>
	<path class="accent" d="M55.9,133.9c-5.6-2.6-10.2-1.4-13.1,0.1c-5,2.6-7.9,7.6-8.4,11.1c-0.7,4.3,1.2,9.5,4.6,12.8
		c2.5,2.4,5.6,3.7,8.9,3.7c0.8,0,1.6-0.1,2.3-0.2c15.7-2.8,23.6-2.2,26.3-1.8c0.7,0.1,1.4-0.4,1.6-1.2c0.5-3,2.4-13.4,5-27.5
		c0.9-5-0.5-10.4-3.6-13.8c-2.7-3-6.6-4.3-11.2-3.8c-5.8,0.6-10.2,3.1-12.4,7c-2,3.7-1.8,8.3,0.6,13c0.1,0.2,0,0.4-0.1,0.5
		C56.3,133.9,56.1,134,55.9,133.9z"/>
	<path class="light" d="M262.1,103.8c-8.5,0-15.7,6.3-19.8,12.5l4.4-16.8c0.5-2.1,1-4,1.5-5.7c2.9-11.5,4.2-16.2,5.9-16.2
		c1.5,0,3.6,1.5,5.9,3c2.8,1.9,5.6,3.8,8.1,3.8c3.8,0,6.7-3.1,7.1-6.1c0.2-1.4-0.2-2.7-1.2-3.8c-1.1-1.2-3.4-2.6-8.3-2.6
		c-11.1,0-34.4,9.4-40.5,32.2c-0.4,1.3-0.9,3.3-1.6,5.7c-2.8,10.2-7.5,27.3-8.2,33.2c-0.2,1.8-0.3,3.5-0.3,5.1
		c-8.8,12.9-16.6,20.8-20.6,20.8c-0.5,0-0.9-0.2-1.2-0.5c-0.6-0.8-1-2.9,0.5-8.7l29.2-102.9c1.9-6.9,4-13.7,6.8-16.9
		c0.4-0.5,0.5-1.1,0.1-1.7c-0.3-0.5-1-0.8-1.6-0.6c-15.2,4.1-29.5,30.1-43.6,79.3l-5.2,18.3c-0.1,0.2-0.2,0.3-0.4,0.3h-37.9
		c-0.2,0-0.3-0.2-0.4-0.2c0-0.1-0.1-0.3,0.1-0.4c10.1-12.6,19.1-26.4,27.7-39.7c14.9-23,28.9-44.7,45.7-53.8
		c0.6-0.3,0.9-1.1,0.7-1.8c-0.2-0.7-0.9-1-1.6-0.9c-29.2,6.2-54.1,38.2-78.1,69.1c-25.7,33.1-50,64.3-78.2,64.3
		c-17.1,0-29.5-11.5-29.5-27.3c0-13.6,10-22.7,19.7-23.6c0.3,0,0.5-0.3,0.5-0.5c0-0.3-0.3-0.5-0.5-0.5c-11.3,0.5-23.3,9.9-23.3,26.5
		c0,19.1,15.6,32.4,37.8,32.4c28.5,0,52.5-12.8,75.5-40.1c0.1-0.1,0.2-0.1,0.3-0.1h40.4c0.1,0,0.3,0.1,0.3,0.2s0.1,0.2,0.1,0.4
		l-3.8,13.1c-2.9,9.8-2.5,17.5,0.9,22.1c2.3,3,5.8,4.6,10.4,4.6c8.9,0,19.4-9,30.1-25.7c0.7,3.1,2,5.7,3.9,7.9
		c5,5.7,13,6.9,18.8,6.9c24.7,0,40.5-20.3,42.9-39.5c1-8.1-0.6-14.8-4.6-19.3C273.2,105.8,268.2,103.8,262.1,103.8z M237.9,132.5
		c3.2-12.8,9.6-20.4,17.1-20.4c1.5,0,2.6,0.5,3.5,1.5c1.8,2,2.4,6.2,1.6,12.3c-1.5,12.2-9,39.1-21.6,39.1c-2.2,0-3.7-0.5-4.7-1.6
		c-1.3-1.5-1.7-4.1-1.2-8.1c0.3-2.1,0.9-4.7,2.9-12.6C236.1,139.9,236.9,136.6,237.9,132.5L237.9,132.5z"/>
	<path class="light" d="M305.3,132.2c0.1-0.2,0.3-0.4,0.5-0.3c4.7,1,9.3,1.5,13.8,1.5c16.3,0,24.6-7.6,25.5-14.8
		c0.4-3.2-0.6-6.3-2.8-8.8c-3.4-3.9-9.5-6-17.1-6c-24.6,0-40.5,22-42.4,37.9c-1,7.7,0.8,14.6,5,19.3c4.3,4.9,11,7.4,19.4,7.4
		c16,0,27.9-13.3,33.2-24.8c0.1-0.2,0.1-0.3,0-0.5s-0.3-0.2-0.4-0.2h-0.8c-0.4,0-0.8,0.2-1.1,0.5c-5.7,6.7-12.4,9.9-20.5,9.9
		c-3.1,0-7.4-0.7-10.3-4c-2.6-2.9-3.6-7.3-2.9-12.9C304.7,135.1,304.9,133.7,305.3,132.2z M323.9,107.2c1.1,0,1.9,0.3,2.5,0.9
		c0.6,0.7,0.8,1.7,0.7,3.1c-0.7,6-8.7,15.3-20,16.9c-0.2,0-0.3-0.1-0.4-0.1c0-0.1-0.1-0.2-0.1-0.4
		C310.8,114.2,316.8,107.2,323.9,107.2z"/>
	<path class="light" d="M403.1,112.9c0.4-2.9-0.3-5.6-1.8-7.2c-1.1-1.3-2.6-1.9-4.5-1.9c-7.6,0-13.9,5.7-20,18.5
		c1.6-5.6,2.2-8.1,2.4-9.9c0.3-2.5-0.2-4.5-1.5-5.9c-1.5-1.7-4.2-2.6-7.8-2.6c-6.7,0-16.7,5.3-23.7,17c-0.2,0.4-0.3,0.8-0.1,1.2
		c0.1,0.4,0.5,0.7,0.9,0.9c0.6,0.2,1.3,0,1.7-0.6c2.8-4.6,5.9-7.1,7.4-7.1c0.5,0,0.8,0.1,0.9,0.2c0.2,0.2,0.3,0.7,0.2,2
		c-0.2,1.6-0.7,3.6-7,27.3l-5.5,20.6c-0.1,0.4,0,0.9,0.2,1.2c0.3,0.4,0.7,0.6,1.1,0.6h17.8c0.6,0,1.2-0.4,1.4-1.1l6.1-23.8
		c3.7-14.2,9-21.2,16.1-21.2c1.1,0,2.3,0.3,3.4,0.6c1,0.3,2,0.5,2.9,0.5C398.3,122.3,402.4,118.1,403.1,112.9z"/>
	<path class="light" d="M442.1,120c-0.5,1.3-0.9,2.3-0.9,2.8c-0.2,1.6,0.2,3,1,4c1.1,1.2,2.8,1.8,5.3,1.8c10.3,0,12.1-8.1,12.4-10.6
		c0.4-3.1-0.5-6-2.6-8.4c-2.4-2.7-7.3-5.9-17.5-5.9c-24.7,0-40.6,22-42.5,37.9c-0.9,7.7,0.9,14.5,5.1,19.3
		c4.3,4.9,11.1,7.5,19.5,7.5c16,0,27.9-13.3,33.2-24.8c0.1-0.2,0.1-0.3,0-0.5s-0.3-0.2-0.4-0.2h-0.8c-0.4,0-0.8,0.2-1.1,0.5
		c-5.7,6.7-12.4,9.9-20.5,9.9c-3.2,0-7.7-0.7-10.7-4.1c-2.5-2.8-3.4-6.9-2.8-12.1c1-8.5,8.5-29.9,19.8-29.9c2.3,0,3.8,0.5,4.6,1.5
		c0.9,1,1.2,2.6,0.9,4.8C443.8,115.4,442.8,118,442.1,120z"/>
	<path class="light" d="M500.9,103.8c-25.7,0-40.4,22.2-42.2,37.2c-1,7.9,0.9,14.9,5.3,19.9c4.4,5,11,7.6,19.1,7.6
		c25.7,0,40.4-22.2,42.2-37.2c1-7.8-0.9-14.9-5.3-19.8C515.5,106.4,509,103.8,500.9,103.8z M484.2,164.9c-1.6,0-2.9-0.5-3.9-1.6
		c-1.9-2.2-2.5-6.7-1.7-13.4c1.6-13.4,9.2-42.8,21.1-42.8c1.6,0,2.9,0.5,3.9,1.6c1.9,2.2,2.5,6.7,1.7,13.4
		C503.7,135.6,496.1,164.9,484.2,164.9z"/>
	<path class="light" d="M586.3,112.9c0.4-2.9-0.3-5.6-1.8-7.2c-1.1-1.3-2.6-1.9-4.5-1.9c-7.6,0-13.9,5.7-20,18.4
		c1.5-5.5,2.2-8.1,2.4-9.9c0.3-2.5-0.2-4.5-1.5-5.9c-1.5-1.7-4.2-2.6-7.8-2.6c-6.7,0-16.7,5.3-23.7,17c-0.2,0.4-0.3,0.8-0.1,1.2
		c0.1,0.4,0.5,0.7,0.9,0.9c0.6,0.2,1.3,0,1.7-0.6c2.8-4.6,5.9-7.1,7.4-7.1c0.5,0,0.8,0.1,0.9,0.2c0.2,0.2,0.3,0.7,0.2,2
		c-0.2,1.6-0.7,3.6-7,27.2l-5.5,20.7c-0.1,0.4,0,0.9,0.2,1.2c0.3,0.4,0.7,0.6,1.1,0.6H547c0.6,0,1.2-0.4,1.4-1.1l6.1-23.8
		c3.7-14.2,9-21.2,16.1-21.2c1.1,0,2.3,0.3,3.4,0.6c1,0.3,2,0.5,2.9,0.5C581.5,122.3,585.6,118.1,586.3,112.9z"/>
	<path class="light" d="M656,150.2c-0.1-0.4-0.5-0.7-0.9-0.9c-0.6-0.2-1.3,0-1.7,0.6c-2.8,4.6-5.9,7.1-7.4,7.1c-0.5,0-0.8-0.1-1-0.3
		c-0.3-0.3-0.4-0.9-0.3-1.8c0.4-2.9,2.2-9.4,4.2-16.4c2.2-7.8,4.4-15.8,4.9-19.7c0.6-4.7-0.3-8.4-2.6-11.1
		c-2.3-2.6-5.8-3.9-10.3-3.9c-9.2,0-20.4,10.1-27.4,20.7l0.2-0.8c1.9-7,2.6-9.3,2.8-11.4c0.3-2.5-0.2-4.5-1.5-5.9
		c-1.5-1.7-4.2-2.6-7.8-2.6c-6.7,0-16.7,5.3-23.7,17c-0.2,0.4-0.3,0.8-0.1,1.2c0.1,0.4,0.5,0.7,0.9,0.9c0.6,0.2,1.3,0,1.7-0.6
		c2.8-4.6,5.9-7.1,7.4-7.1c0.4,0,0.7,0.1,0.9,0.3c0.3,0.4,0.5,1.1,0.3,2.2c-0.2,1.2-0.3,1.8-8.2,31.4l-4.3,16.3
		c-0.1,0.4,0,0.9,0.2,1.2c0.3,0.4,0.7,0.6,1.1,0.6h17.8c0.6,0,1.2-0.4,1.4-1.1l6.1-23.8c3.9-15.4,15.1-27.8,21.7-27.8
		c0.9,0,1.6,0.3,2.1,0.9c0.7,0.8,1,2.1,0.7,4c-0.2,2-2.8,11.5-5.4,20.7c-2.5,9.2-4.9,17.9-5.1,19.8c-0.3,2.5,0.2,4.5,1.5,5.9
		c1.5,1.7,4.2,2.6,7.8,2.6c6.7,0,16.7-5.3,23.7-17C656.1,151,656.1,150.6,656,150.2z"/>
</g>
</svg>
