<?xml version="1.0" encoding="utf-8"?>
<!-- Generator: Adobe Illustrator 23.0.2, SVG Export Plug-In . SVG Version: 6.00 Build 0)  -->
<svg version="1.1" id="Layer_1" xmlns="http://www.w3.org/2000/svg" xmlns:xlink="http://www.w3.org/1999/xlink" x="0px" y="0px"
	 viewBox="0 0 364.91 301.75" style="enable-background:new 0 0 364.91 301.75;" xml:space="preserve">
<style type="text/css">
	.st0{fill:#FFFFFF;}
</style>
<g>
	<path class="st0" d="M130.03,65.83c2.04,0.92,3.31,1.63,3.81,2.13c1,0.97,1.36,2.4,1.07,4.31c-1.07,7-2.08,13.67-3.01,19.98
		c-0.04,0.23-0.13,1.22-0.27,2.98c-0.14,1.47-0.32,2.71-0.54,3.7c-0.64,3.05-1.88,4.89-3.71,5.52c-1.65,0.58-4.15,1.44-7.52,2.59
		c-3.33,1.17-5.82,2.03-7.47,2.57c-2.33,0.81-5.8,2.02-10.42,3.63c-2.54,0.87-3.89,1.31-4.03,1.32c-1.93,0.12-2.95-1.64-3.06-5.3
		c-0.04-1.1,0.04-2.59,0.21-4.47c0.14-2.01,0.22-3.19,0.22-3.55c0-2.72,0.2-4.53,0.59-5.43c0.65-1.47,2.13-2.38,4.46-2.73
		c3.83-0.56,9.6-1.41,17.3-2.54c0.25-0.04,0.29-3.04,0.11-9c-0.07-2.09-1.16-3.51-3.28-4.27c-1.79-0.67-4.46-1.64-8-2.92
		c-3.58-1.3-6.27-2.29-8.06-2.95c-1.58-0.59-2.54-1.78-2.9-3.57c-0.07-0.41-0.13-2.24-0.16-5.49c-0.04-2.1-0.09-5.26-0.16-9.46
		c-0.07-4.17-0.13-7.3-0.16-9.41c-0.04-1.85,0.64-3.23,2.04-4.13c0.64-0.47,2.13-1.06,4.46-1.76c4.69-1.49,11.57-3.64,20.63-6.45
		c0.29-0.12,1.22-0.47,2.79-1.07c1.29-0.48,2.34-0.82,3.17-1.02c2.51-0.61,4.05-0.21,4.62,1.2c0.07,0.09,0.11,0.2,0.11,0.34v0.16
		c0,6.48-0.09,10.11-0.27,10.87c-0.32,1.24-1.58,2.19-3.76,2.85c-0.72,0.21-1.59,0.4-2.63,0.59c-1.18,0.2-1.83,0.31-1.93,0.34
		c-0.14,0.04-1.02,0.2-2.63,0.49c-1.58,0.27-2.88,0.52-3.92,0.75c-3.44,0.84-5.25,1.86-5.42,3.06c-0.5,3.29-0.75,5.09-0.75,5.37
		c0.04,1.64,0.79,2.8,2.26,3.49L130.03,65.83z"/>
	<path class="st0" d="M182.56,78.7c0.29,5.25,0.46,7.39,0.54,6.4c-0.14,2.69-1.2,4.55-3.17,5.58c-2.54,1.3-5,2-7.36,2.11
		c-2.94,0.09-4.42-1.04-4.46-3.39c-0.11-4.77-0.29-12.07-0.54-21.92c-0.11-4.73-0.18-8.24-0.21-10.52
		c-0.04-1.28-0.68-1.65-1.93-1.11c-0.43,0.2-1.02,0.53-1.77,0.99c-0.9,0.58-1.49,0.95-1.77,1.1c-2.04,1.09-3.37,1.97-3.97,2.64
		c-0.86,0.93-1.34,2.27-1.45,4.01c-0.5,7.59-0.75,11.3-0.75,11.12c-0.14,2.15-0.36,5.38-0.65,9.69c-0.32,4.35-0.56,7.61-0.7,9.76
		c-0.18,2.63-1.95,4.03-5.32,4.21c-5.37,0.29-8.24,0.27-8.59-0.06c-0.97-0.94-1.45-4.63-1.45-11.08c0-5.48-0.02-13.69-0.05-24.64
		c0-10.63,0-18.6,0-23.9c0-4.37-0.02-6.35-0.05-5.95c0.21-2.32,1.09-4.16,2.63-5.54c0.14-0.15,0.3-0.28,0.48-0.41l0.05-0.02
		c-0.07,0.02-0.07,0.02,0,0c3.47-1.96,6.07-3.42,7.79-4.38c3.72-2.07,5.8-2.4,6.23-0.98c0.21,0.76,0.29,3.32,0.21,7.67
		c-0.04,2.34-0.11,5.85-0.21,10.54c0,0.57,2.97-0.08,8.92-1.97c0.21-0.06,1.45-0.54,3.71-1.44c2.01-0.79,3.65-1.35,4.94-1.69
		c4.12-1.07,6.25-0.41,6.39,1.98c0.11,1.8,0.27,4.45,0.48,7.97c0.22,3.56,0.38,6.21,0.48,7.97
		C181.33,58.75,181.85,67.16,182.56,78.7z"/>
	<path class="st0" d="M225.96,73.51c0.11,1.98-0.59,3.46-2.09,4.47c-0.79,0.55-2.4,1.17-4.83,1.87l-23.58,6.76
		c-3.83,1.1-5.78,1.64-5.85,1.63c-2.4,0.33-3.56-0.54-3.49-2.6c0.21-5.61,0.41-11.24,0.59-16.87c0.11-2.75,0.27-6.81,0.48-12.17
		c0.18-5.46,0.32-9.51,0.43-12.15c0.18-4.67,0.23-6.74,0.16-6.22c0.32-2.42,1.4-4.25,3.22-5.49l6.07-2.55
		c2.61-1.07,6.52-2.69,11.71-4.86c0.39-0.15,1.56-0.7,3.49-1.65c1.75-0.86,3.15-1.48,4.19-1.85c3.4-1.23,5.46-0.9,6.18,0.97
		c0.07,0.19,0.09,0.39,0.05,0.58C224.15,45.65,225.24,62.36,225.96,73.51z M209.9,66.67c1.4-0.22,2.26-0.52,2.58-0.9
		c0.29-0.37,0.41-1.23,0.38-2.58c-0.47-8.64-0.81-15.2-1.02-19.69c-0.07-1.23-0.93-1.58-2.58-1.03c-0.54,0.19-1.25,0.5-2.15,0.94
		c-1.07,0.52-1.72,0.83-1.93,0.93c-1.83,0.77-2.97,1.35-3.44,1.74c-0.75,0.68-1.15,1.78-1.18,3.29c-0.07,2.53-0.18,6.32-0.32,11.37
		c0,0.18-0.05,0.77-0.16,1.77c-0.11,1-0.16,1.78-0.16,2.36c-0.04,2.02,0.36,3.07,1.18,3.15C205,67.44,207.93,66.99,209.9,66.67z"/>
	<path class="st0" d="M267.21,11.46c0.72,15.51,1.25,27.43,1.61,35.74c0.11,2.19-1.07,4.03-3.54,5.53c0.21-0.13-1.93,0.88-6.45,3.03
		c-5.12,2.4-8.95,4.2-11.5,5.39c-1.54,0.73-2.54,1.41-3.01,2.04c-0.57,0.7-0.86,1.8-0.86,3.31v12.08c0,3.26-0.56,5.28-1.67,6.06
		c-2.44,1.77-5.01,3.16-7.73,4.15c-3.76,1.4-5.64,0.9-5.64-1.5c0.11-16.68,0.2-29.29,0.27-37.84c0.04-4.49,0.09-11.23,0.16-20.24
		c0.03-2.16,0.21-3.7,0.54-4.61c0.57-1.52,1.77-2.66,3.6-3.4c9.35-3.72,16.35-6.49,21-8.33c0.39-0.15,1.52-0.65,3.38-1.51
		c1.61-0.78,2.9-1.33,3.87-1.65c3.15-1.05,5.1-0.73,5.86,0.95c0.11,0.33,0.12,0.39,0.05,0.2c0.07,0.19,0.11,0.29,0.11,0.29
		S267.25,11.27,267.21,11.46z M245.67,47.55c4.62-2.43,6.5-3.38,5.64-2.85c2.44-1.49,3.58-2.89,3.44-4.21
		c-0.79-7.79-1.4-11.59-1.83-11.4c-1.47,0.64-3.63,1.6-6.5,2.88c-1.54,0.69-2.26,2.08-2.15,4.16
		C244.74,43.81,245.21,47.62,245.67,47.55z"/>
	<path class="st0" d="M91.09,202.99c0.25,1.83-0.54,3.2-2.36,4.12c-0.43,0.23-2.04,0.73-4.83,1.49c-4.73,1.32-11.83,3.29-21.32,5.9
		c-3.83,1.06-6.73,1.86-8.7,2.39c-1.97,0.56-3.15,0.71-3.54,0.43c-0.86-0.61-1.25-3.26-1.18-7.93c0.14-9.28,0.34-23.17,0.59-41.69
		c0.03-3.98,0.11-9.88,0.21-17.68c0.04-2.7,0.09-4.18,0.16-4.45c0.29-1.62,1.18-2.86,2.69-3.72c0.14-0.11,0.3-0.18,0.48-0.19
		c2.65-0.87,6.64-2.15,11.98-3.86c5.34-1.71,9.35-3,12.03-3.88c0.21-0.06,1.15-0.42,2.79-1.07c1.32-0.49,2.4-0.83,3.22-1.03
		c2.51-0.58,3.85,0.06,4.03,1.91c0,0.04-0.54,2.98-1.61,8.84c-0.43,2.49-1.61,4.06-3.54,4.72c-0.18,0.09-1.27,0.42-3.28,0.99
		c-2.04,0.62-3.76,1.19-5.16,1.69c-4.62,1.58-6.95,2.83-6.98,3.77c-0.04,1.73-0.09,4.34-0.16,7.83c-0.07,3.53-0.13,6.16-0.16,7.89
		l-0.48,20.76l-0.05,0.93c-0.07,0.59-0.11,1.09-0.11,1.48c0.03,1.17,0.36,1.65,0.97,1.44l7.68-2.95c0.25-0.11,1.27-0.58,3.06-1.42
		c1.79-0.84,3.28-1.48,4.46-1.92c3.9-1.48,6.16-1.57,6.77-0.28c0.25,0.54,0.38,0.81,0.38,0.81S89.77,193.2,91.09,202.99z"/>
	<path class="st0" d="M132.5,190.31c0.11,1.98-0.59,3.46-2.1,4.47c-0.79,0.55-2.4,1.17-4.83,1.87L102,203.41
		c-3.83,1.1-5.78,1.64-5.85,1.63c-2.4,0.33-3.56-0.54-3.49-2.6c0.22-5.61,0.41-11.24,0.59-16.87c0.11-2.75,0.27-6.81,0.48-12.17
		c0.18-5.46,0.32-9.51,0.43-12.15c0.18-4.67,0.23-6.74,0.16-6.22c0.32-2.42,1.4-4.25,3.22-5.49l6.07-2.55
		c2.61-1.07,6.52-2.69,11.71-4.86c0.39-0.15,1.56-0.7,3.49-1.65c1.75-0.86,3.15-1.48,4.19-1.85c3.4-1.23,5.46-0.9,6.18,0.97
		c0.07,0.19,0.09,0.39,0.05,0.58C130.7,162.45,131.79,179.16,132.5,190.31z M116.44,183.47c1.4-0.22,2.26-0.52,2.58-0.9
		c0.29-0.37,0.41-1.23,0.38-2.58c-0.47-8.64-0.81-15.2-1.02-19.69c-0.07-1.23-0.93-1.58-2.58-1.03c-0.54,0.19-1.25,0.5-2.15,0.94
		c-1.07,0.52-1.72,0.83-1.93,0.93c-1.83,0.77-2.97,1.35-3.44,1.74c-0.75,0.68-1.15,1.78-1.18,3.29c-0.07,2.53-0.18,6.32-0.32,11.37
		c0,0.18-0.05,0.77-0.16,1.77c-0.11,1-0.16,1.78-0.16,2.36c-0.04,2.02,0.36,3.07,1.18,3.15
		C111.54,184.23,114.48,183.79,116.44,183.47z"/>
	<path class="st0" d="M194.81,160.46c0,0.43,0.11,1.35,0.32,2.75c0.18,1.6,0.3,2.85,0.38,3.76c0.25,3.26-0.07,5.5-0.97,6.72
		c-0.9,1.26-3.85,2.79-8.86,4.58c-3.08,1.06-4.98,0.64-5.69-1.27c-0.04-0.06-0.2-2.52-0.48-7.38c-0.14-2.57-0.36-6.47-0.65-11.69
		c-0.04-0.35-0.07-0.91-0.11-1.69c-0.04-0.74-0.07-1.3-0.11-1.69c0-0.14-0.59-0.62-1.77-1.43c-1.22-0.8-1.84-0.83-1.88-0.11
		l-0.64,9.15c-0.21,2.75-0.54,7.16-0.97,13.22c-0.25,3.33-0.54,5.31-0.86,5.94c-0.68,1.38-3.46,2.76-8.32,4.16
		c-3.15,0.9-5.16,0.42-6.02-1.44l-0.86-6.63c-0.14-1.21-0.39-3.18-0.75-5.91c-0.32-2.52-0.57-4.47-0.75-5.85
		c0.04,0.13-0.18-1.54-0.65-5.02c-0.07-0.7-0.18-1.06-0.32-1.09c-0.14-0.03-0.57,0.24-1.29,0.8c-1.18,0.91-2.04,3.95-2.58,9.12
		c-0.32,2.99-0.79,7.46-1.4,13.4c-0.36,3.36-0.75,5.34-1.18,5.92c-1.43,1.84-4.05,2.86-7.84,3.05c-3.9,0.22-5.78-0.81-5.64-3.11
		c0.14-1.72,0.32-4.28,0.54-7.67c0.25-3.4,0.45-5.95,0.59-7.64l1.83-25.66c0.03-0.3,0.07-1.33,0.11-3.09
		c0.04-1.41,0.11-2.54,0.21-3.39c0.43-2.63,1.54-4.5,3.33-5.63c-0.04,0.01,0-0.02,0.11-0.08c0.36-0.21,0.41-0.24,0.16-0.1l0.11-0.03
		c0.11-0.07,0.2-0.11,0.27-0.13c0.68-0.19,2.17-0.73,4.46-1.6c2.18-0.8,3.92-1.39,5.21-1.76c4.33-1.31,7.29-1.34,8.86-0.07
		l4.03,3.25c0.75,0.61,1.41,0.56,1.99-0.14l1.61-2.66c2.54-4.27,4.8-6.64,6.77-7.1c2.4-0.62,6.03-1.52,10.9-2.7
		c3.47-0.85,5.71-0.92,6.71-0.21c0.46,0.33,0.84,4.63,1.13,12.89c0.11,2.83,0.27,7.03,0.48,12.59c0.21,5.67,0.32,8.5,0.32,8.5
		S194.7,157.7,194.81,160.46z"/>
	<path class="st0" d="M216.78,158.3c0,0.14,0.05,1.01,0.16,2.59c0.07,1.41,0.09,2.61,0.05,3.58c-0.11,3.11-0.9,5.07-2.36,5.89
		c-2.72,1.5-5.5,2.52-8.32,3.09c-3.83,0.78-5.78-0.02-5.86-2.4c-0.11-3.55-0.25-8.88-0.43-15.99c-0.32-11.01-0.56-19.39-0.7-25.15
		c-0.11-4.73-0.2-6.87-0.27-6.42c0.25-2.51,1.36-4.42,3.33-5.73c0.22-0.17,0.43-0.27,0.65-0.29c5.73-2.39,8.45-3.55,8.16-3.47
		c3.72-1.1,5.58-0.42,5.58,2.05c0,1.86,0,4.66,0,8.38V158.3z M211.35,110.12c-4.83,1.96-7.07,2.89-6.71,2.78
		c-2.9,0.8-4.4,0.08-4.51-2.14c-0.04-0.17-0.16-1.19-0.38-3.06c-0.18-1.49-0.23-2.73-0.16-3.71c0.11-2.97,1.2-4.94,3.28-5.93
		l0.11-0.03c0.11-0.07,0.2-0.11,0.27-0.13l6.98-2.38c3.01-1.04,4.64-0.54,4.89,1.5c0.04,0.38,0.02,2.73-0.05,7.05
		C215.02,107.08,213.79,109.1,211.35,110.12z"/>
	<path class="st0" d="M266.94,142.57c0.36,2.55,0.52,4.06,0.48,4.53c-0.07,1.63-0.79,3.14-2.15,4.54c-1.61,1.61-3.67,3.2-6.18,4.78
		c-3.15,2.01-5.25,2.65-6.28,1.91c-0.43-0.31-0.88-3.72-1.34-10.25c-0.39-5.22-0.93-12.5-1.61-21.83c-0.11-1.29-0.9-1.64-2.36-1.04
		c-0.47,0.21-1.11,0.55-1.93,1.04c-1,0.57-1.65,0.94-1.93,1.09c-2.33,1.17-3.6,1.82-3.81,1.95c-1.22,0.89-1.81,2.02-1.77,3.41
		c0.11,9.89,0.18,17.32,0.21,22.28c0.04,3.43-0.07,5.55-0.32,6.38c-0.61,2-2.24,3.42-4.89,4.25c-4.8,1.52-7.14,2.26-7.04,2.23
		c-2.65,0.4-3.97-0.67-3.97-3.21c0.04-8.35,0.07-14.63,0.11-18.83c0.11-16.04,0.16-24.11,0.16-24.22c0-0.21-0.04-1.12-0.11-2.71
		c-0.07-1.23-0.07-2.25,0-3.06c0.25-2.47,1.2-4.16,2.85-5.06c0.21-0.2,0.46-0.33,0.75-0.38c3.26-0.61,8.47-1.6,15.63-2.98
		c6.8-1.31,12.03-2.3,15.68-2.99c2.83-0.52,4.48,0.78,4.94,3.9c0.07,0.41,0.82,5.65,2.26,15.74
		C265.49,132.26,266.37,138.44,266.94,142.57z"/>
	<path class="st0" d="M309.21,85.93c2.51-0.97,3.69,0.72,3.55,5.05l-0.7,17.66c-1.04,28.19-1.56,42.11-1.56,41.75
		c-0.14,3.87-1.5,6.23-4.08,7.08c-1.97,0.6-4.92,1.54-8.86,2.81c-3.94,1.24-6.89,2.17-8.86,2.81c-1.4,0.44-3.47,1.08-6.23,1.95
		c-2.79,0.91-4.87,1.58-6.23,2c-3.12,0.96-4.74,1.45-4.89,1.46c-2.15,0.11-3.08-1.68-2.79-5.38c0.36-5.19,0.7-8.11,1.02-8.78
		c0.72-1.39,2.72-2.45,6.02-3.18l11.92-2.67c6.27-1.37,9.43-2.35,9.51-2.94c0.14-1.19,0.36-2.88,0.64-5.07
		c0.29-2.34,0.5-4.03,0.64-5.07c0.18-1.3-0.56-1.81-2.2-1.52c-0.54,0.08-1.25,0.27-2.15,0.56c-1.07,0.38-1.72,0.58-1.93,0.61
		l-12.35,3.06c-4.33,1.06-6.52,1.6-6.55,1.61c-2.54,0.19-3.74-0.91-3.6-3.32c0.72-9.98,1.24-17.47,1.56-22.47
		c0.04-0.47,0.07-1.72,0.11-3.74c0-1.72,0.07-3.12,0.21-4.2c0.43-3.38,1.68-5.75,3.76-7.09c0.21-0.13,0.41-0.21,0.59-0.22
		C275.07,98.96,286.23,94.7,309.21,85.93z M287.35,119.05c1.18-0.16,2.94-0.41,5.26-0.76c2.36-0.36,4.14-0.61,5.32-0.77
		c0.72-0.13,1.07-0.45,1.07-0.95c0,0.25-0.11-0.31-0.32-1.68l-1.02-6.42c-0.21-1.62-1.04-2.19-2.47-1.71
		c-0.72,0.24-1.79,0.6-3.22,1.09c-1.47,0.46-2.56,0.81-3.28,1.05c-1.58,0.52-2.38,1.86-2.42,4.02c0,0.14-0.04,0.67-0.11,1.59
		c-0.07,0.81-0.11,1.48-0.11,2.02C286.1,118.23,286.53,119.07,287.35,119.05z"/>
	<path class="st0" d="M127.89,246.45c2.04,0.92,3.31,1.63,3.81,2.13c1,0.97,1.36,2.4,1.07,4.31c-1.07,7-2.08,13.67-3.01,19.98
		c-0.04,0.23-0.13,1.22-0.27,2.98c-0.14,1.47-0.32,2.71-0.54,3.7c-0.65,3.05-1.88,4.89-3.71,5.52c-1.65,0.58-4.15,1.44-7.52,2.59
		c-3.33,1.17-5.82,2.03-7.47,2.57c-2.33,0.81-5.8,2.02-10.42,3.63c-2.54,0.87-3.89,1.31-4.03,1.32c-1.93,0.13-2.95-1.64-3.06-5.3
		c-0.04-1.1,0.04-2.59,0.22-4.47c0.14-2.01,0.21-3.19,0.21-3.55c0-2.72,0.2-4.53,0.59-5.43c0.65-1.47,2.13-2.38,4.46-2.73
		c3.83-0.56,9.6-1.41,17.3-2.54c0.25-0.04,0.29-3.04,0.11-9c-0.07-2.09-1.16-3.52-3.28-4.27c-1.79-0.67-4.46-1.64-8-2.92
		c-3.58-1.3-6.27-2.28-8.06-2.95c-1.58-0.59-2.54-1.78-2.9-3.57c-0.07-0.41-0.13-2.24-0.16-5.49c-0.04-2.1-0.09-5.26-0.16-9.46
		c-0.07-4.17-0.13-7.3-0.16-9.41c-0.04-1.85,0.64-3.23,2.04-4.13c0.64-0.47,2.13-1.06,4.46-1.76c4.69-1.49,11.56-3.64,20.62-6.45
		c0.29-0.12,1.22-0.47,2.79-1.07c1.29-0.48,2.34-0.81,3.17-1.02c2.51-0.61,4.05-0.21,4.62,1.2c0.07,0.09,0.11,0.2,0.11,0.35v0.16
		c0,6.48-0.09,10.11-0.27,10.87c-0.32,1.24-1.58,2.19-3.76,2.85c-0.72,0.21-1.59,0.4-2.63,0.59c-1.18,0.2-1.83,0.31-1.93,0.34
		c-0.14,0.04-1.02,0.2-2.63,0.49c-1.58,0.27-2.88,0.52-3.92,0.75c-3.44,0.84-5.25,1.86-5.42,3.06c-0.5,3.3-0.75,5.09-0.75,5.37
		c0.04,1.64,0.79,2.8,2.26,3.49L127.89,246.45z"/>
	<path class="st0" d="M174.02,220.98c0.04,0.17,0.05,0.34,0.05,0.52c0.39,10.41,0.97,26.06,1.72,46.93
		c0.07,2.02-0.93,3.54-3.01,4.57c-0.39,0.19-2.22,0.74-5.48,1.68l-23.63,6.78c-2.79,0.8-4.51,1.21-5.16,1.21
		c-1.79,0.01-2.65-1.01-2.58-3.07c0.29-8.17,0.52-14.31,0.7-18.41c0.07-2.63,0.21-6.6,0.43-11.89c0.18-5.24,0.32-9.19,0.43-11.83
		c0.11-3.68,0.18-5.58,0.21-5.7c0.43-2.41,1.59-3.89,3.49-4.44l19.23-5.51c0.39-0.11,1.56-0.52,3.49-1.22
		c1.68-0.59,3.03-1.01,4.03-1.26c3.26-0.75,5.24-0.27,5.96,1.46c0.11,0.22,0.16,0.33,0.16,0.33S174.06,221.07,174.02,220.98z
		 M150.87,262.47c1.04-0.15,2.51-0.38,4.4-0.67c2.01-0.29,3.47-0.51,4.4-0.67c1.4-0.22,2.26-0.52,2.58-0.9
		c0.29-0.37,0.39-1.22,0.32-2.56c-0.18-4.17-0.5-10.72-0.97-19.65c-0.07-1.27-0.93-1.61-2.58-1.03c-0.54,0.19-1.25,0.5-2.15,0.94
		c-1.07,0.52-1.72,0.83-1.93,0.93c-1.83,0.74-2.97,1.32-3.44,1.74c-0.75,0.68-1.15,1.78-1.18,3.29c-0.14,5.13-0.25,8.92-0.32,11.37
		c0,0.14-0.05,0.71-0.16,1.71s-0.16,1.78-0.16,2.36C149.66,261.34,150.05,262.39,150.87,262.47z M219.41,205.44l1.93,48.7
		c0.07,2.02-0.77,3.53-2.52,4.54c-0.68,0.38-2.4,0.98-5.16,1.8c-2.58,0.77-6.45,1.94-11.6,3.49c-5.19,1.56-9.08,2.73-11.66,3.5
		c-3.19,0.95-5.01,1.44-5.48,1.46c-2.01,0.18-3.01-0.77-3.01-2.84c0.04-7.92,0.07-13.88,0.11-17.86
		c0.07-10.48,0.13-18.32,0.16-23.52c0.04-3.27,0.09-5.09,0.16-5.47c0.39-2.15,1.56-3.62,3.49-4.38c4.87-1.9,11.55-4.51,20.03-7.84
		c0.39-0.15,1.52-0.67,3.38-1.56c1.65-0.76,2.99-1.32,4.03-1.69c3.26-1.11,5.25-0.81,5.96,0.92l0.05,0.04
		c0.11,0.33,0.13,0.38,0.05,0.15c0.07,0.19,0.11,0.29,0.11,0.29S219.44,205.25,219.41,205.44z M197.87,249.48
		c3.87-1.36,6.77-2.37,8.7-3.03c1.11-0.39,1.72-1.33,1.83-2.83c0.04-0.47,0.02-1.1-0.05-1.86c-0.07-0.98-0.11-1.54-0.11-1.69
		l0.05-3.61c0-2.4,0-4.48,0-6.23c-0.14-5.58-0.59-8.26-1.34-8.05c0.07-0.02-3.04,1-9.35,3.06c-0.86,0.28-1.31,1.25-1.34,2.91
		c0,0.5,0.04,1.14,0.11,1.9c0.07,0.84,0.11,1.31,0.11,1.42c0,0.25-0.04,1.51-0.11,3.79c-0.11,2.43-0.16,4.43-0.16,6.01
		C196.24,246.58,196.8,249.32,197.87,249.48z"/>
	<path class="st0" d="M270.38,231.59c0.36,2.55,0.52,4.06,0.48,4.53c-0.07,1.63-0.79,3.15-2.15,4.54c-1.61,1.61-3.67,3.2-6.18,4.78
		c-3.15,2.01-5.25,2.65-6.28,1.91c-0.43-0.31-0.88-3.72-1.34-10.25c-0.39-5.22-0.93-12.5-1.61-21.83c-0.11-1.29-0.9-1.64-2.36-1.04
		c-0.47,0.21-1.11,0.55-1.93,1.04c-1,0.58-1.65,0.94-1.93,1.09c-2.33,1.17-3.6,1.82-3.81,1.95c-1.22,0.89-1.81,2.02-1.77,3.41
		c0.11,9.89,0.18,17.32,0.21,22.28c0.04,3.43-0.07,5.55-0.32,6.38c-0.61,2-2.24,3.42-4.89,4.25c-4.8,1.52-7.14,2.26-7.04,2.23
		c-2.65,0.4-3.97-0.67-3.97-3.21c0.04-8.35,0.07-14.63,0.11-18.83c0.11-16.04,0.16-24.11,0.16-24.22c0-0.21-0.04-1.12-0.11-2.71
		c-0.07-1.23-0.07-2.25,0-3.06c0.25-2.47,1.2-4.16,2.85-5.06c0.21-0.2,0.46-0.33,0.75-0.38c3.26-0.61,8.47-1.6,15.63-2.98
		c6.8-1.31,12.03-2.3,15.68-2.99c2.83-0.52,4.48,0.78,4.94,3.9c0.07,0.41,0.82,5.65,2.26,15.73
		C268.93,221.28,269.81,227.45,270.38,231.59z"/>
</g>
</svg>
